<svg width="24" height="24" viewBox="0 0 24 24" fill="none" xmlns="http://www.w3.org/2000/svg">
<g id="heroicons-solid:menu-alt-4">
<g id="Group">
<path id="Vector" fill-rule="evenodd" clip-rule="evenodd" d="M3.6001 8.39995C3.6001 8.08169 3.72653 7.77647 3.95157 7.55142C4.17661 7.32638 4.48184 7.19995 4.8001 7.19995H19.2001C19.5184 7.19995 19.8236 7.32638 20.0486 7.55142C20.2737 7.77647 20.4001 8.08169 20.4001 8.39995C20.4001 8.71821 20.2737 9.02344 20.0486 9.24848C19.8236 9.47352 19.5184 9.59995 19.2001 9.59995H4.8001C4.48184 9.59995 4.17661 9.47352 3.95157 9.24848C3.72653 9.02344 3.6001 8.71821 3.6001 8.39995ZM3.6001 15.5999C3.6001 15.2817 3.72653 14.9765 3.95157 14.7514C4.17661 14.5264 4.48184 14.4 4.8001 14.4H19.2001C19.5184 14.4 19.8236 14.5264 20.0486 14.7514C20.2737 14.9765 20.4001 15.2817 20.4001 15.5999C20.4001 15.9182 20.2737 16.2234 20.0486 16.4485C19.8236 16.6735 19.5184 16.7999 19.2001 16.7999H4.8001C4.48184 16.7999 4.17661 16.6735 3.95157 16.4485C3.72653 16.2234 3.6001 15.9182 3.6001 15.5999Z" fill="#363B64"/>
</g>
</g>
</svg>
